<svg xmlns="http://www.w3.org/2000/svg" xmlns:xlink="http://www.w3.org/1999/xlink" width="1920" height="1080" viewBox="0 0 1920 1080">
  <defs>
    <filter id="Bistro_" x="795" y="238" width="330" height="119" filterUnits="userSpaceOnUse">
      <feOffset dy="3" input="SourceAlpha"/>
      <feGaussianBlur stdDeviation="3" result="blur"/>
      <feFlood flood-opacity="0.161"/>
      <feComposite operator="in" in2="blur"/>
      <feComposite in="SourceGraphic"/>
    </filter>
    <filter id="Babushka" x="642" y="288" width="637" height="148" filterUnits="userSpaceOnUse">
      <feOffset dy="3" input="SourceAlpha"/>
      <feGaussianBlur stdDeviation="3" result="blur-2"/>
      <feFlood flood-opacity="0.161"/>
      <feComposite operator="in" in2="blur-2"/>
      <feComposite in="SourceGraphic"/>
    </filter>
    <clipPath id="clip-path">
      <rect id="Rectangle_4" data-name="Rectangle 4" width="572" height="230" fill="none"/>
    </clipPath>
    <clipPath id="clip-iPhone_12_12_Pro_1">
      <rect width="1920" height="1080"/>
    </clipPath>
  </defs>
  <g id="iPhone_12_12_Pro_1" data-name="iPhone 12, 12 Pro – 1" clip-path="url(#clip-iPhone_12_12_Pro_1)">
    <rect width="1920" height="1080" fill="#ede0cc"/>
    <g transform="matrix(1, 0, 0, 1, 0, 0)" filter="url(#Bistro_)">
      <text id="Bistro_2" data-name="Bistro " transform="translate(804 301)" fill="#5d5932" font-size="70" font-family="PadyakkeExpandedOne-Regular, Padyakke Expanded One"><tspan x="0" y="0">Bistro </tspan></text>
    </g>
    <g transform="matrix(1, 0, 0, 1, 0, 0)" filter="url(#Babushka)">
      <text id="Babushka-2" data-name="Babushka" transform="translate(651 367)" fill="#5d5932" font-size="90" font-family="PadyakkeExpandedOne-Regular, Padyakke Expanded One"><tspan x="0" y="0">Babushka</tspan></text>
    </g>
    <g id="Group_7" data-name="Group 7" transform="translate(600 64)">
      <g id="Group_6" data-name="Group 6" clip-path="url(#clip-path)">
        <path id="Path_3" data-name="Path 3" d="M.37,220.77a35.86,35.86,0,0,0,6.883,3.864c17.671,7.588,37.008.754,60.967-1.288,44.091-3.757,57.082,12.7,90.467,3.864,5.333-1.412,20.485-5.424,23.6-13.525,2.539-6.6-5.381-9.508-2.95-16.1,3.518-9.544,22.192-9.111,25.567-18.678,1.641-4.651-1.258-9.053-5.9-16.1-5.654-8.585-9.647-8.815-10.817-12.881-2.853-9.922,18.969-15.347,31.467-29.627,16.748-19.136,7.107-43.15,6.883-43.152-.256,0-9.22,31.452,12.783,44.44,3.588,2.118,8.5,4.037,14.75,9.017,5.449,4.338,12.545,9.987,12.783,17.39.166,5.167-3.049,9.939-5.9,14.169-3.636,5.4-6.414,6.948-5.9,10.305.664,4.333,6.355,8.681,10.817,8.373,3.87-.267,3.7-3.824,9.833-8.373,7.746-5.745,14.182-4.643,18.683-9.017,4.471-4.344,2.121-9.314.983-14.813-1.48-7.154.98-15.074,5.9-30.915,5.418-17.444,10.656-18.367,19.667-39.932a187.445,187.445,0,0,0,8.85-27.051C337.424,21.569,336.728.5,338.637.5c2.127,0-1.2,26.174,14.75,57.966,1.988,3.964,6.971,11.833,11.8,19.322,3.2,4.967,1.242,1.717,14.75,20.61,6.735,9.42,8.089,11.44,10.817,11.593,6.669.375,14.122-10.825,17.7-19.322,8.761-20.8,1.544-42.613-.983-42.508-3.542.147-10.637,43.873,15.733,54.1,5.926,2.3,10.04,1.547,20.65,5.8,5.339,2.138,18.367,7.356,24.583,16.746,6.46,9.758,1.864,18.436,3.933,18.678,2.316.271,8.986-10.5,11.8-23.83,4-18.961-.857-38.065-2.95-38-3.09.1-13.154,42.406,14.75,57.322,3.856,2.061,10.565,4.737,20.65,10.949,12.243,7.541,18.365,11.312,19.667,16.746.635,2.651-.221,3.924-10.817,21.254-5.56,9.093-8.31,13.714-6.883,17.39,2.548,6.564,12.185,10.027,14.75,10.949,17.047,6.126,35.966.14,38.35-.644" transform="translate(-0.006 -0.178)" fill="none" stroke="#000" stroke-miterlimit="10" stroke-width="1"/>
      </g>
    </g>
  </g>
</svg>
